:SAMPLES-PER-SECOND 30
:FULLY-SPECIFIED
:DEGREES
98
root  -23.9337 40.1454 6.4876 178.074 -31.6375 178.51
RightUpLeg  3.2602 -7.45722 1.5315
RightLeg  14.591 -6.25365 2.71986
RightFoot  -15.4996 -0.351749 -6.76861
RightToes  -1.16417e-010 0 -3.6325e-017
Spine  4.06584 1.11471 12.1752
Spine1  8.30658 3.12875 -5.38508
HEad  -10.2701 -1.70578 -2.15875
LeftShoulder1  8.84333 -12.1394 -49.3486
LeftArm  -1.44038 21.2391 -30.3118
LeftForeArm  25.7058 -16.1974 -5.0687
LeftHand  -0.244104 0.0205437 5.32207
RightShoulder  6.74173 10.5304 41.7876
RightArm  8.06549 5.38068 36.7382
RightForeArm  1.22243 31.743 6.91659
RightHand  -1.73893 4.90185 -19.7199
LeftUpLeg  -22.576 0.101386 2.93825
LeftLeg  35.5888 4.46666 3.82894
LeftFoot  -2.74429 0.191562 -2.34152
LeftToes  5.72949e-011 -1.2716e-010 -5.73128e-012
99
root  -24.9064 40.0981 5.39243 178.169 -30.7781 178.363
RightUpLeg  6.2965 -7.62864 0.539972
RightLeg  13.2802 -5.04314 2.97694
RightFoot  -16.5258 -0.414039 -6.66003
RightToes  -1.16417e-010 0 -3.6325e-017
Spine  3.53104 1.22469 12.0286
Spine1  8.95529 3.33756 -6.42871
HEad  -10.4482 -0.877769 -2.09848
LeftShoulder1  9.11074 -12.4196 -49.946
LeftArm  -4.91021 21.8768 -30.4429
LeftForeArm  30.8841 -9.93379 -6.60998
LeftHand  -0.244104 0.0205437 5.32207
RightShoulder  6.69084 10.5893 41.2616
RightArm  8.92315 9.60399 37.8498
RightForeArm  1.69166 34.4888 7.62867
RightHand  -1.64113 4.3637 -19.6283
LeftUpLeg  -22.5572 1.27315 2.60908
LeftLeg  22.9201 1.40356 1.11437
LeftFoot  -1.27781 0.248717 -2.69977
LeftToes  5.72949e-011 -1.2716e-010 -5.73128e-012
100
root  -25.8906 40.0017 4.24646 178.216 -30.0239 178.005
RightUpLeg  9.70265 -7.97446 -0.840486
RightLeg  11.7724 -3.49238 3.26358
RightFoot  -17.7142 -0.454003 -6.03545
RightToes  -1.16417e-010 0 -3.6325e-017
Spine  3.05176 1.39128 11.1716
Spine1  9.72131 3.56177 -7.07018
HEad  -10.7378 -0.164097 -1.95933
LeftShoulder1  9.30578 -12.6244 -50.3652
LeftArm  -5.71301 23.2092 -30.7862
LeftForeArm  32.4008 -6.03483 -6.69614
LeftHand  -0.244104 0.0205437 5.32207
RightShoulder  6.63364 10.5919 40.8719
RightArm  9.72958 13.033 38.5296
RightForeArm  1.65926 36.6 8.23635
RightHand  -1.60856 4.18396 -19.5969
LeftUpLeg  -21.4972 3.3649 1.99697
LeftLeg  9.85341 -0.356929 -0.741609
LeftFoot  0.334391 0.452393 -4.45883
LeftToes  5.72949e-011 -1.2716e-010 -5.73128e-012
101
root  -26.9533 39.7441 3.0463 177.985 -29.2957 177.929
RightUpLeg  12.8989 -8.54711 -2.27771
RightLeg  11.4514 -1.62102 3.41735
RightFoot  -19.376 -0.439112 -4.38573
RightToes  -1.16417e-010 0 -3.6325e-017
Spine  2.76132 1.54913 10.624
Spine1  10.2521 3.82163 -7.57453
HEad  -11.0702 0.385774 -1.69721
LeftShoulder1  9.39957 -12.7304 -50.5391
LeftArm  -5.80845 25.237 -31.1695
LeftForeArm  32.8682 -4.65156 -6.5002
LeftHand  -0.244104 0.0205437 5.32207
RightShoulder  6.58314 10.5563 40.6458
RightArm  10.2408 15.4814 38.863
RightForeArm  2.13327 38.1338 8.67256
RightHand  -1.55069 3.95028 -19.3662
LeftUpLeg  -20.4356 2.05525 3.15346
LeftLeg  0.394497 5.5603 -3.23798
LeftFoot  0.363009 0.536028 -5.22991
LeftToes  5.72949e-011 -1.2716e-010 -5.73128e-012
102
root  -28.1145 39.4073 1.7964 177.626 -28.635 178.273
RightUpLeg  15.5217 -9.32026 -3.47896
RightLeg  12.3717 0.152204 3.24268
RightFoot  -20.5944 -0.387687 -3.04936
RightToes  -1.16417e-010 0 -3.6325e-017
Spine  2.42535 1.66305 10.8246
Spine1  10.5863 4.13354 -8.22666
HEad  -11.4071 0.76574 -1.39785
LeftShoulder1  9.40579 -12.7383 -50.5479
LeftArm  -5.89631 27.5674 -31.3381
LeftForeArm  33.4505 -5.0803 -6.45261
LeftHand  -0.244104 0.0205437 5.32207
RightShoulder  6.52718 10.4931 40.4684
RightArm  10.4864 16.661 38.9065
RightForeArm  3.02713 39.352 9.00225
RightHand  -1.45306 3.49349 -19.0803
LeftUpLeg  -20.6894 2.50325 3.09723
LeftLeg  -1.83292 11.012 -4.56135
LeftFoot  -0.541971 0.33458 -3.51342
LeftToes  5.72949e-011 -1.2716e-010 -5.73128e-012
103
root  -29.3344 39.0978 0.487613 177.362 -27.9101 178.308
RightUpLeg  17.8074 -10.1014 -4.97135
RightLeg  14.0868 2.16276 2.54229
RightFoot  -21.2985 -0.278366 -1.5909
RightToes  -1.16417e-010 0 -3.6325e-017
Spine  2.08211 1.89816 10.5483
Spine1  10.9744 4.53218 -8.4732
HEad  -11.7216 1.02908 -1.21008
LeftShoulder1  9.36413 -12.6476 -50.6052
LeftArm  -5.59097 29.6408 -31.1731
LeftForeArm  33.5646 -6.18423 -6.59852
LeftHand  -0.244104 0.0205437 5.32207
RightShoulder  6.53042 10.4717 40.5576
RightArm  10.7013 16.4727 38.3049
RightForeArm  3.49327 40.274 9.27215
RightHand  -1.38488 3.15702 -18.898
LeftUpLeg  -21.618 3.08044 2.1703
LeftLeg  1.97984 14.3856 -3.66921
LeftFoot  1.199 0.0971913 -0.999539
LeftToes  5.72949e-011 -1.2716e-010 -5.73128e-012
104
root  -30.5756 38.7843 -0.903945 177.024 -27.0512 177.421
RightUpLeg  19.8843 -9.6002 -7.03302
RightLeg  17.1756 3.83672 1.60216
RightFoot  -21.7765 0.0988486 2.67204
RightToes  -1.16417e-010 0 -3.6325e-017
Spine  2.0166 2.39891 8.62366
Spine1  11.2986 4.85961 -7.70365
HEad  -11.8838 1.22254 -1.01166
LeftShoulder1  9.30134 -12.4874 -50.7662
LeftArm  -5.23351 30.9651 -30.7149
LeftForeArm  33.1182 -6.92988 -6.76241
LeftHand  -0.244104 0.0205437 5.32207
RightShoulder  6.68505 10.567 41.2921
RightArm  10.8439 15.0792 36.9851
RightForeArm  3.67965 40.226 9.24354
RightHand  -1.38113 3.21296 -18.7319
LeftUpLeg  -22.5078 6.64366 -0.789482
LeftLeg  8.98994 11.3493 -1.01407
LeftFoot  5.6821 -0.149325 0.76636
LeftToes  5.72949e-011 -1.2716e-010 -5.73128e-012
105
root  -31.7846 38.5671 -2.29647 176.742 -26.5748 175.746
RightUpLeg  20.4101 -6.44916 -8.71863
RightLeg  22.9975 2.34666 0.783339
RightFoot  -19.3881 0.486345 9.23203
RightToes  -1.16417e-010 0 -3.6325e-017
Spine  2.35807 2.81263 5.67968
Spine1  11.3245 4.9528 -6.6606
HEad  -11.7145 1.28881 -0.583679
LeftShoulder1  9.23603 -12.3571 -50.8217
LeftArm  -5.09471 31.1378 -30.0282
LeftForeArm  32.5494 -6.90635 -6.79098
LeftHand  -0.244104 0.0205437 5.32207
RightShoulder  6.92697 10.6993 42.4709
RightArm  10.6989 12.713 35.8268
RightForeArm  4.14973 38.145 8.55762
RightHand  -1.44131 3.61727 -18.6801
LeftUpLeg  -22.8737 11.5668 -5.02877
LeftLeg  15.5015 5.10736 1.29072
LeftFoot  8.63673 -0.429432 2.15938
LeftToes  5.72949e-011 -1.2716e-010 -5.73128e-012
106
root  -32.963 38.5684 -3.59451 176.592 -26.5918 174.183
RightUpLeg  17.5436 -3.61049 -9.90512
RightLeg  33.1294 -0.70301 -0.792007
RightFoot  -10.885 -0.0960501 12.8985
RightToes  -1.16417e-010 0 -3.6325e-017
Spine  2.98231 2.80824 3.72162
Spine1  10.8426 4.90448 -6.541
HEad  -11.2454 1.24654 -0.212114
LeftShoulder1  9.20024 -12.3503 -50.6494
LeftArm  -5.0635 29.9591 -29.1637
LeftForeArm  32.3362 -6.43713 -6.7152
LeftHand  -0.244104 0.0205437 5.32207
RightShoulder  7.07354 10.7308 43.3243
RightArm  10.8718 9.89258 35.8808
RightForeArm  3.27351 33.2834 7.15749
RightHand  -1.5885 4.304 -19.1241
LeftUpLeg  -21.9938 11.2967 -7.04445
LeftLeg  20.3877 4.92667 2.45401
LeftFoot  6.86992 -0.636537 3.73871
LeftToes  5.72949e-011 -1.2716e-010 -5.73128e-012
107
root  -34.0542 38.7066 -4.72119 176.547 -26.276 172.954
RightUpLeg  11.1486 -1.2389 -10.6008
RightLeg  45.8986 -2.79618 -3.38396
RightFoot  1.3929 -1.15072 10.6682
RightToes  -1.16417e-010 0 -3.6325e-017
Spine  3.89625 2.69076 2.74097
Spine1  10.1761 4.89249 -7.13525
HEad  -10.785 1.40575 -0.539769
LeftShoulder1  9.20358 -12.4267 -50.4279
LeftArm  -5.18074 27.6288 -28.3026
LeftForeArm  32.4036 -6.32578 -6.60185
LeftHand  -0.244104 0.0205437 5.32207
RightShoulder  7.10859 10.7309 43.5509
RightArm  12.2189 7.66058 36.9532
RightForeArm  -0.740914 25.5309 5.90241
RightHand  -1.75234 4.96763 -19.7492
LeftUpLeg  -19.9866 10.1068 -8.32012
LeftLeg  23.1046 6.76475 3.48171
LeftFoot  2.65994 -0.620994 4.9045
LeftToes  5.72949e-011 -1.2716e-010 -5.73128e-012
